<svg xmlns="http://www.w3.org/2000/svg" width="1024" height="1024" viewBox="0 0 1024 1024" fill="none"><metadata><rdf:RDF xmlns:rdf="http://www.w3.org/1999/02/22-rdf-syntax-ns#" xmlns:dc="http://purl.org/dc/elements/1.1/"><rdf:Description><dc:creator>RealFaviconGenerator</dc:creator><dc:source>https://realfavicongenerator.net</dc:source></rdf:Description></rdf:RDF></metadata><g clip-path="url(#clip0_699_679)">
<path fill-rule="evenodd" clip-rule="evenodd" d="M481.999 73.1069C415.884 77.4459 362.053 92.1959 303.499 122.02C251.865 148.318 206.078 184.67 166.863 230.5C124.213 280.344 91.3367 343.478 75.4737 406C65.3907 445.74 61.6427 476.078 61.6367 518C61.6277 577.379 70.2327 622.581 92.6007 680.644C97.9777 694.601 97.1857 694.124 107.411 689.568C117.255 685.182 116.892 686.677 111.383 673.233C103.971 655.149 95.2157 626.928 90.5227 606C80.0837 559.448 78.6777 498.157 86.9207 449C94.1827 405.695 106.454 367.926 125.91 329C159.037 262.719 210.116 204.796 271.409 164.006C336.801 120.488 412.266 96.0889 490.499 93.1709C547.378 91.0499 602.327 100.189 655.999 120.696C670.838 126.366 703.087 141.469 710.798 146.36L715.098 149.087L712.078 152.794C710.417 154.832 704.273 162.125 698.425 169C677.415 193.7 672.999 199.091 672.999 200.038C672.999 200.612 679.102 201 688.116 201H703.232L702.724 203.25C698.245 223.073 678.987 291.758 669.849 320.5C660.467 350.011 641.43 406.186 636.639 418.5C635.783 420.7 632.838 428.624 630.094 436.109C622.863 455.835 604.806 500.704 592.712 529C562.22 600.337 526.665 670.828 488.173 736.255C470.137 766.914 434.64 823.097 420.785 842.916C418.702 845.895 417.23 848.565 417.514 848.848C419.284 850.619 453.991 810.865 474.797 783.234C529.262 710.903 580.528 620.133 635.045 499.5C639.022 490.7 643.959 479.45 646.016 474.5C648.074 469.55 654.589 454.025 660.494 440C670.073 417.251 675.188 404.559 687.296 373.5C692.678 359.696 706.653 322.133 712.223 306.5C720.7 282.711 734.838 242.112 739.127 229.243C741.373 222.502 743.521 216.795 743.9 216.561C744.278 216.327 748.393 218.559 753.044 221.52C764.047 228.527 770.04 232 771.125 232C772.397 232 772.197 224.4 770.508 208.5C768.629 190.816 768.6 187 770.346 187C774.298 187 814.935 226.439 831.244 246.101C865.599 287.521 890.653 332.394 908.151 383.845C925.762 435.627 933.247 497.371 928.476 551.5C927.652 560.85 926.769 569.85 926.514 571.5C920.133 612.75 913.794 637.55 901.86 667.951C897.974 677.848 897.231 680.636 898.235 681.545C898.93 682.173 903.003 684.319 907.286 686.312L915.073 689.936L915.934 687.718C916.408 686.498 917.792 683.025 919.011 680C928.353 656.811 935.984 630.576 941.846 601.5C955.311 534.706 952.185 462.956 932.851 395C920.407 351.263 898.253 304.535 871.81 266.254C844.706 227.015 810.964 191.378 774.984 163.988C770.26 160.393 766.843 157.024 766.588 155.712C766.164 153.533 764.609 131.184 763.363 109.338C762.615 96.2349 761.884 94.3869 758.88 97.9999C750.706 107.831 730.814 130.909 729.76 131.783C728.796 132.584 725.309 131.108 715.984 125.954C683.257 107.867 638.9 91.2669 601.499 83.1099C575.891 77.5249 564.357 75.9079 532.999 73.5069C512.032 71.9019 501.614 71.8199 481.999 73.1069ZM586.999 223.898C565.585 228.492 557.33 254.64 572.015 271.365C586.206 287.528 614.577 281.018 620.626 260.211C624.539 246.752 617.762 231.405 605.499 225.95C600.743 223.834 591.88 222.851 586.999 223.898ZM515.652 274.437C509.161 277.617 505.478 281.327 502.215 287.97C498.622 295.286 498.444 306.246 501.815 312.723C506.753 322.212 517.629 329.261 527.396 329.302C538.587 329.349 546.653 324.689 552.864 314.587C556.257 309.068 556.499 308.137 556.499 300.587C556.499 293.572 556.136 291.882 553.758 287.838C549.461 280.527 546.359 277.358 540.779 274.578C533.657 271.029 522.734 270.967 515.652 274.437ZM569.999 396.482C569.999 446.817 570.336 487.998 570.749 487.996C571.162 487.994 573.618 482.706 576.209 476.246C586.067 451.661 611.901 386.114 615.128 377.5L618.499 368.5V337V305.5L594.249 305.232L569.999 304.964V396.482ZM456.702 333.39C447.725 336.715 440.851 343.707 438.019 352.391C436.282 357.719 437.172 368.478 439.764 373.5C440.9 375.7 443.555 379.14 445.664 381.144C457.537 392.426 473.078 392.713 484.553 381.861C491.653 375.145 494.254 369.446 494.172 360.777C494.066 349.48 488.232 339.989 478.329 335.002C472.458 332.045 462.363 331.293 456.702 333.39ZM504.999 495.5C504.999 573.325 505.377 637 505.838 637C506.3 637 507.252 635.763 507.953 634.25C508.654 632.737 514.409 620.025 520.742 606C527.074 591.975 537.035 569.925 542.877 557L553.499 533.5L553.77 443.75L554.041 354H529.52H504.999V495.5ZM309.967 386.941C305.823 388.2 303.007 390.305 300.863 393.745C299.177 396.453 297.526 407.474 290.904 460.245C286.538 495.035 282.052 530.475 280.935 539C279.817 547.525 278.501 557.875 278.009 562C277.517 566.125 275.495 582.1 273.516 597.5C269.503 628.725 261.416 692.437 259.998 704C259.492 708.125 258.615 715.038 258.049 719.362C257.483 723.686 257.267 727.624 257.568 728.112C258.332 729.348 306.719 729.262 307.484 728.024C307.816 727.487 308.76 721.75 309.582 715.274C311.394 700.992 312.844 689.679 313.972 681C314.437 677.425 315.321 670.225 315.937 665C316.553 659.775 317.707 651 318.502 645.5C319.297 640 321.067 626.725 322.437 616C323.806 605.275 325.603 591.325 326.431 585C327.258 578.675 329.096 564.5 330.515 553.5C331.935 542.5 333.714 528.775 334.47 523C335.226 517.225 336.364 508.45 336.999 503.5C339.255 485.912 341.033 476.537 342.366 475.205C343.501 474.07 344.122 474.225 346.246 476.177C347.637 477.455 359.377 499.2 372.335 524.5C422.741 622.918 469.821 712.5 471.138 712.5C471.908 712.5 476.555 704.296 481.843 693.601L491.186 674.703L479.405 650.601C456.921 604.606 441.774 573.463 438.5 566.5C436.69 562.65 429.94 548.7 423.5 535.5C417.06 522.3 409.303 506.325 406.261 500C392.363 471.098 386.43 458.745 381.763 449C378.997 443.225 373.141 431.075 368.75 422C364.358 412.925 359.052 401.854 356.959 397.398C354.866 392.942 352.411 388.555 351.504 387.648C350.084 386.228 347.27 386.012 331.178 386.086C320.904 386.133 311.36 386.518 309.967 386.941ZM708.662 397.25C707.427 398.488 702.896 407.825 698.594 418C694.292 428.175 686.219 447.075 680.656 460C668.58 488.052 668.618 487.742 674.353 512.5C676.391 521.3 678.92 532.325 679.972 537C681.024 541.675 683.551 552.7 685.587 561.5C687.622 570.3 690.963 585.15 693.01 594.5C695.057 603.85 698.138 617.575 699.857 625C701.576 632.425 706.86 655.6 711.599 676.5C716.337 697.4 720.953 717.65 721.857 721.5L723.499 728.5L747.749 728.768L771.999 729.036V726.545C771.999 725.175 770.685 716.279 769.079 706.777C767.473 697.275 764.534 679.375 762.547 667C760.56 654.625 758.282 640.45 757.485 635.5C756.688 630.55 754.416 616.375 752.438 604C750.459 591.625 746.839 569.125 744.394 554C741.948 538.875 739.059 520.875 737.973 514C736.887 507.125 734.444 491.825 732.545 480C730.646 468.175 727.257 446.91 725.014 432.744C719.572 398.368 719.454 397.806 717.4 396.304C714.722 394.346 711.178 394.729 708.662 397.25ZM441.759 456.732L441.476 499.5L446.689 510.5C449.557 516.55 455.675 528.475 460.285 537C464.896 545.525 473.294 561.201 478.949 571.835C484.96 583.142 489.599 590.8 490.119 590.28C490.631 589.768 490.901 552.131 490.755 501.944L490.499 414.5L466.27 414.232L442.041 413.965L441.759 456.732ZM824.767 694.454C821.614 695.101 818.82 695.845 818.559 696.107C818.011 696.655 820.47 707.804 821.328 708.662C821.913 709.248 833.93 707.403 834.728 706.604C835.526 705.807 832.923 695.181 831.694 694.215C830.942 693.624 828.375 693.713 824.767 694.454ZM867.127 701.064C865.294 704.399 864.091 707.436 864.454 707.814C864.818 708.191 870.152 710.975 876.307 714C888.844 720.161 890.103 721.952 885.715 727.375C882.287 731.61 879.261 731.125 871.029 725.022C867.15 722.147 863.404 720.014 862.703 720.283C860.701 721.052 855.734 728.763 856.473 729.957C856.838 730.548 860.481 733.289 864.568 736.047C871.057 740.426 871.999 741.443 871.999 744.076C871.999 747.295 868.212 752 865.621 752C864.109 752 854.761 745.342 854.166 743.841C853.398 741.905 851.044 743.286 847.622 747.679L843.977 752.357L847.728 755.429C857.426 763.368 857.383 763.307 856.135 767.086C855.509 768.985 852.956 772.667 850.463 775.269C846.82 779.071 845.27 780 842.572 780C839.07 780 837.393 778.729 822.023 764.431C818.435 761.094 813.024 756.154 809.999 753.455C806.974 750.756 801.406 745.628 797.625 742.06L790.751 735.573L788.492 738.407C787.249 739.965 785.27 742.953 784.093 745.046L781.955 748.851L787.123 753.175C789.966 755.554 796.35 761.1 801.312 765.5C814.94 777.587 836.116 794.893 839.499 796.708C844.258 799.262 852.828 798.953 857.012 796.076C862.773 792.114 865.814 788.924 870.107 782.334C873.516 777.102 874.185 775.25 874.153 771.133C874.116 766.302 874.185 766.188 877.528 765.561C884.829 764.191 889.635 757.332 888.756 749.535C888.271 745.234 888.349 745.083 891.378 744.443C900.031 742.616 906.742 733.288 905.748 724.468C904.973 717.59 901.61 713.667 889.999 706.096C881.115 700.304 871.924 695 870.77 695C870.6 695 868.961 697.729 867.127 701.064ZM844.249 699.662C841.912 700.49 839.999 701.473 839.999 701.847C839.999 702.629 843.771 713.105 844.21 713.545C844.591 713.926 854.707 711.298 856.047 710.471C857.182 709.769 856.717 707.461 854.289 701.75C852.493 697.524 851.105 697.236 844.249 699.662ZM148.694 705.996C145.501 708.164 141.066 711.498 138.839 713.405C132.629 718.72 128.521 720.282 120.874 720.234C112.703 720.183 104.279 716.462 96.0607 709.273C89.7117 703.719 89.1547 703.909 84.1157 713.338L80.4987 720.105L83.9987 723.105C89.0707 727.454 100.566 732.841 107.499 734.118C113.169 735.162 125.831 734.769 129.29 733.442C130.513 732.972 131.029 733.712 131.54 736.666C131.905 738.775 133.561 743.509 135.22 747.187L138.237 753.873L134.576 758.341C129.513 764.52 126.619 773.077 127.457 779.393C128.276 785.57 131.022 791 135.032 794.374C140.74 799.177 150.594 797.293 157.436 790.092C159.051 788.391 160.735 787 161.177 787C161.619 787 163.854 789.869 166.144 793.376C170.378 799.862 176.244 804.648 181.219 805.676C184.156 806.283 184.484 806.952 185.501 814.416C186.336 820.537 190.007 828.998 193.065 831.847C196.53 835.075 203.371 834.786 209.053 831.172C216.105 826.687 225.908 816.392 228.568 810.679C231.51 804.359 231.628 799.932 228.999 794.5C224.869 785.969 212.861 783.33 199.165 787.944C195.809 789.075 192.239 790 191.233 790C188.298 790 179.214 779.572 177.591 774.339C177.005 772.451 178.38 771.203 188.494 764.439C194.859 760.183 200.296 756.328 200.578 755.873C200.859 755.418 200.612 753.277 200.03 751.114C198.715 746.233 193.513 741.488 187.762 739.926C182.332 738.451 171.419 739.316 163.234 741.871L156.968 743.826L154.602 740.663C146.185 729.413 147.124 724.889 159.503 717.072C163.076 714.815 165.999 712.371 165.999 711.641C165.999 710.273 156.785 701.979 155.32 702.027C154.868 702.042 151.887 703.828 148.694 705.996ZM171.499 751.641C167.392 752.482 162 754.34 162.014 754.91C162.062 756.791 164.957 763.486 165.851 763.784C167.364 764.288 181.007 756.144 181.707 754.319C182.764 751.563 177.994 750.312 171.499 751.641ZM144.308 766.652C142.208 769.855 141.959 779.042 143.907 781.389C145.851 783.731 148.566 783.365 150.857 780.453C154.144 776.275 154.451 772.577 151.89 768.02C149.246 763.315 146.785 762.871 144.308 766.652ZM739.749 775.566C739.336 775.988 738.999 779.381 738.999 783.105V789.877L743.249 790.514C745.586 790.865 749.074 791.23 750.999 791.326L754.499 791.5L754.791 783.75C755.074 776.255 755.008 776 752.791 775.991C751.53 775.987 748.249 775.716 745.499 775.39C742.749 775.065 740.162 775.144 739.749 775.566ZM799.999 791.502C796.422 793.549 785.731 797.517 776.999 800.038C766.432 803.089 755.77 808.205 753.22 811.447C749.789 815.808 749.41 820.404 751.86 827.918C755.041 837.676 755.084 837.716 759.929 835.532C765.44 833.046 766.282 831.876 764.995 828.49C763.606 824.837 764.448 822.576 767.768 821.04C773.036 818.603 789.345 813.013 789.816 813.483C790.886 814.554 780.887 833.052 775.212 840.5C767.543 850.564 765.9 852.353 758.449 858.755C750.515 865.57 748.174 865.838 745.354 860.251C739.497 848.649 733.968 842.138 727.781 839.553C710.905 832.504 694.655 850.869 691.492 880.565C690.338 891.397 688.732 891.383 681.628 880.477C678.949 876.365 676.319 873 675.785 873C674.408 873 665.093 880.309 665.042 881.429C665.018 881.941 669.004 888.466 673.9 895.929C686.229 914.726 687.377 917.076 685.858 920.41C684.352 923.716 674.673 930.283 668.08 932.473C665.361 933.376 660.974 933.977 658.331 933.808C653.8 933.518 653.388 933.25 651.108 929.106C649.778 926.689 646.941 919.043 644.803 912.114C642.665 905.186 640.575 899.176 640.159 898.76C639.588 898.189 632.327 900.231 630.216 901.556C629.541 901.979 635.109 923.245 637.892 930.869C643.284 945.644 647.2 950.482 655.87 953.079C667.828 956.662 692.434 944.803 699.33 932.132C702.753 925.843 702.794 920.249 699.468 913.105C698.087 910.137 697.118 907.548 697.315 907.351C697.512 907.154 700.233 906.519 703.362 905.941C715.752 903.65 730.57 895.638 739.276 886.521L744.499 881.051L748.82 882.545C756.741 885.284 764.226 881.691 776.468 869.274C787.06 858.53 793.085 848.656 800.128 830.5C803.542 821.7 807.609 812.425 809.167 809.889C810.725 807.354 811.999 804.792 811.999 804.197C811.999 802.804 803.98 789.989 803.137 790.035C802.786 790.055 801.374 790.715 799.999 791.502ZM201.151 800.885C200.043 801.587 200.019 802.777 201.013 807.569C203.34 818.776 204.995 820.167 209.56 814.75C216.814 806.144 215.558 799.981 206.558 800.015C204.325 800.024 201.892 800.415 201.151 800.885ZM276.157 811.137L270.815 813.208L271.468 816.854C272.576 823.043 274.043 828 274.766 828C275.146 828 278.502 826.836 282.225 825.414C289.72 822.55 289.39 823.451 286.519 813.684C285.037 808.643 283.54 808.275 276.157 811.137ZM233.91 832.579C220.082 845.645 217.839 848.281 214.4 855.5C208.87 867.109 212.882 877.651 226.342 886.883C241.909 897.56 257.719 900.134 264.71 893.13C267.208 890.628 278.018 874.905 288.52 858.5C290.633 855.2 292.765 851.962 293.258 851.304C293.891 850.46 292.306 849.174 287.875 846.938L281.596 843.768L279.398 846.323C278.189 847.728 273.322 855.381 268.583 863.33C263.845 871.278 259.265 878.365 258.406 879.077C256.024 881.054 248.902 878.754 240.87 873.415C224.415 862.475 225.002 857.337 244.887 838.294L254.499 829.088L250.41 824.969L246.321 820.851L233.91 832.579ZM323.742 836.144C321.249 840.74 314.591 853.275 308.947 864C303.302 874.725 298.108 884.583 297.404 885.908C294.682 891.024 293.698 897.854 295.009 902.537C298.102 913.582 318.256 924.96 328.493 921.441C332.129 920.191 332.191 920.214 333.505 923.338C335.445 927.95 339.59 931.456 347.44 935.124C355.974 939.112 363.273 939.944 368.048 937.474C371.26 935.814 371.476 935.814 372.462 937.472C377.612 946.134 385.003 949.118 392.154 945.42C395.176 943.857 395.247 943.88 398.494 947.424C407.194 956.923 422.366 956.074 428.397 945.752C432.358 938.971 438.568 913.539 436.916 910.865C436.499 910.191 433.469 909.445 430.182 909.207C423.255 908.706 423.909 907.749 421.538 921.847C419.455 934.232 418.792 935.39 414.212 934.647C412.236 934.326 409.784 933.229 408.764 932.209C406.977 930.423 406.972 930.06 408.616 922.427C411.279 910.063 411.217 909.691 406.308 908.639C404.003 908.145 401.491 907.981 400.726 908.275C399.961 908.568 398.284 912.72 396.999 917.501C395.714 922.282 393.999 926.857 393.187 927.669C390.337 930.519 382.977 926.519 383.012 922.139C383.019 921.238 383.919 917.647 385.012 914.161C386.105 910.674 386.999 907.465 386.999 907.03C386.999 906.594 384.862 905.714 382.249 905.073C379.636 904.433 376.783 903.697 375.908 903.438C374.671 903.071 373.833 904.631 372.14 910.457C369.726 918.766 367.85 920.562 362.493 919.693C356.465 918.714 348.971 914.846 347.466 911.936C345.873 908.855 346.305 907.074 351.404 895.721C352.831 892.543 353.999 889.363 353.999 888.654C353.999 887.087 343.113 883.486 341.935 884.664C341.474 885.125 339.919 888.652 338.479 892.501C334.825 902.269 333.541 904 329.951 904C326.033 904 313.399 897.616 311.946 894.902C310.204 891.646 311.538 887.268 317.097 878C319.901 873.325 325.243 864.1 328.968 857.5C332.693 850.9 337.373 842.8 339.367 839.5C341.362 836.2 342.995 832.959 342.996 832.297C342.999 831.075 338.433 829.467 331.888 828.386L328.276 827.789L323.742 836.144ZM714.912 858.28C713.052 859.533 710.518 862.346 709.281 864.53C706.975 868.602 701.999 882.467 701.999 884.821C701.999 886.765 705.192 885.561 715.499 879.73C726.342 873.597 732.999 868.379 732.999 866.014C732.999 861.884 725.467 856 720.179 856C719.143 856 716.773 857.026 714.912 858.28ZM464.252 871.723C460.458 872.194 460.596 871.754 459.021 888.5C457.573 903.889 456.158 917.432 454.954 927.409C452.927 944.203 454.151 952.086 459.64 957.575C464.926 962.86 471.403 964.5 486.999 964.5C501.641 964.5 503.949 964.003 515.652 958.327L522.804 954.858L527.185 959.238C533.284 965.337 537.98 966.513 555.999 966.448C571.66 966.392 576.083 965.483 581.057 961.298L584.065 958.767L589.985 961.335C593.241 962.747 598.518 964.442 601.711 965.101C609.099 966.627 612.978 964.922 616.118 958.768C617.938 955.2 618.174 953.455 617.707 947.038C616.673 932.829 611.112 920.478 603.719 915.971C599.538 913.422 592.499 913.398 588.365 915.919C582.628 919.417 577.484 928.773 575.614 939.113C574.412 945.751 572.801 946.37 555.692 946.758C539.571 947.124 535.682 946.35 539.395 943.514C540.438 942.717 544.076 941.139 547.479 940.006C553.662 937.949 553.669 937.943 554.833 932.897C556.903 923.933 556.688 923.358 550.749 921.989C547.861 921.323 538.11 917.847 529.08 914.264C505.205 904.79 500.037 905.154 493.728 916.748C492.205 919.549 490.855 923.503 490.728 925.535C490.502 929.181 490.566 929.248 495.499 930.527C498.249 931.24 500.708 931.616 500.964 931.363C501.22 931.11 501.895 929.462 502.464 927.702C503.215 925.377 504.184 924.422 505.999 924.214C508.91 923.881 527.178 931.038 527.744 932.734C528.169 934.011 514.421 940.921 506.206 943.558C501.954 944.924 498.319 945.169 487.706 944.805C475.038 944.37 470.628 943.391 468.764 940.6C467.572 938.815 467.874 933.353 469.986 918.5C474.133 889.334 475.999 875.265 475.999 873.168C475.999 871.259 475.492 871.019 471.749 871.16C469.412 871.248 466.038 871.501 464.252 871.723ZM294.749 927.154C292.136 928.812 290.003 930.919 290.009 931.835C290.025 934.611 294.816 944 296.216 944C298.422 944 307.999 937.043 307.999 935.44C307.999 932.41 302.993 923.999 301.232 924.07C300.279 924.108 297.362 925.496 294.749 927.154ZM591.113 934.582C588.222 938.258 587.558 940.987 589.164 942.594C590.771 944.201 603.738 947.595 604.678 946.655C605.561 945.772 603.455 939.191 601.029 935.25C598.448 931.057 594.115 930.765 591.113 934.582Z" fill="#FC4258"></path>
<path d="M828.905 717.538C829.014 717.181 831.131 716.802 833.608 716.696C840.874 716.387 842.117 717.069 842.595 721.636C843.241 727.808 843.009 730.151 841.718 730.489C840.194 730.887 829.753 730.433 829.5 729.957C829.209 729.407 828.675 718.286 828.905 717.538Z" fill="#FC4258"></path>
</g><defs>
<clipPath id="clip0_699_679">
<rect width="1024" height="1024" fill="white"></rect>
</clipPath>
</defs></svg>